<svg width="742" height="399" viewBox="0 0 742 399" fill="none" xmlns="http://www.w3.org/2000/svg">
<path d="M625.864 394.84C625.864 394.84 707.804 402.828 732.345 353.752C768.019 282.41 697.171 226.351 644.61 236.587C530.078 258.892 557.658 12.8222 373.849 63.0423C322.165 77.1635 182.521 -6.7231 143.574 127.782C134.313 159.767 101.501 163.289 53.8681 183.584C-39.3535 223.302 3.27134 395.51 69.8818 396.186C136.492 396.862 625.864 394.84 625.864 394.84Z" fill="url(#paint0_linear_6_842)"/>
<path d="M617.979 127.893L609.759 127.703C612.4 131.135 612.993 134.297 611.349 136.972C609.705 139.701 605.77 141.944 599.895 143.646C604.342 131.784 606.579 119.273 606.579 106.438C606.579 92.0622 603.776 78.119 598.223 65.0136C592.887 52.3405 585.233 40.9374 575.476 31.1826C565.719 21.4007 554.373 13.7267 541.733 8.34966C528.634 2.81016 514.727 0 500.416 0C486.077 0 472.17 2.81016 459.072 8.34966C457.508 9.02537 455.945 9.72758 454.436 10.4573C454.431 10.4594 454.427 10.462 454.422 10.4641C449.856 9.0672 445.409 7.9224 441.117 7.05048C419.456 2.64331 404.085 5.68919 397.841 15.627C391.899 25.0786 395.133 39.3061 406.924 55.8994C406.923 55.902 406.921 55.9046 406.92 55.9072C405.33 58.8525 403.901 61.8789 402.581 65.0136C401.583 67.3643 400.694 69.7152 399.886 72.1202C377.731 73.4444 365.872 77.3533 361.56 84.4332C356.547 92.6747 363.393 103.736 385.305 114.49C388.323 115.976 391.558 117.435 394.954 118.894C396.086 128.865 398.646 138.566 402.581 147.861C407.917 160.534 415.572 171.937 425.328 181.719C435.085 191.474 446.432 199.148 459.072 204.525C472.17 210.064 486.078 212.875 500.416 212.875C514.727 212.875 528.634 210.065 541.733 204.525C554.373 199.148 565.72 191.474 575.476 181.719C584.964 172.207 592.483 161.129 597.792 148.861C608.6 146.618 615.715 143.106 618.545 138.458C620.513 135.242 620.27 131.676 617.979 127.893ZM592.618 145.322C585.422 146.619 576.447 147.375 565.962 147.483C549.694 147.682 531.01 146.394 511.32 143.792C512.977 140.176 514.601 136.461 516.185 132.66C522.295 134.71 528.225 136.333 533.88 137.483C540.359 138.802 546.271 139.453 551.548 139.453C563.918 139.453 572.781 135.873 577.157 128.907C577.878 127.759 578.465 126.543 578.918 125.258H572.612C572.508 125.45 572.396 125.64 572.28 125.825C569.029 131 561.764 133.672 551.562 133.67C546.683 133.67 541.129 133.059 535.025 131.817C529.704 130.735 524.124 129.215 518.371 127.301C519.889 123.492 521.365 119.61 522.791 115.67C526.634 105.044 529.925 94.5113 532.587 84.3968C544.718 86.1897 557.738 87.09 571.574 87.09C580.188 87.09 589.119 86.7415 598.345 86.0437C599.715 92.7023 600.407 99.5168 600.407 106.438C600.407 119.921 597.792 133 592.618 145.322ZM461.246 198.088C458.179 196.973 456.622 192.56 455.856 189.054C454.646 183.514 454.427 175.732 455.223 166.55C455.626 161.906 456.273 156.969 457.145 151.805C469.715 155.164 482.163 159.483 494.285 164.689C491.554 169.409 488.794 173.786 486.033 177.753C480.773 185.313 475.63 191.144 471.158 194.619C468.329 196.817 464.313 199.202 461.246 198.088ZM497.062 159.748C484.374 154.267 471.33 149.737 458.155 146.24C458.619 143.842 459.129 141.404 459.682 138.927C463.345 139.763 467.061 140.571 470.823 141.349C481.832 143.606 492.814 145.523 503.565 147.074C501.436 151.491 499.262 155.725 497.062 159.748ZM473.248 137.35C468.995 136.473 464.803 135.556 460.683 134.604C462.622 126.513 465.005 118.078 467.786 109.483C482.245 118.394 496.948 125.643 510.871 130.787C509.124 134.967 507.33 139.044 505.498 142.989C494.923 141.468 484.104 139.581 473.248 137.35ZM437.936 28.1338C438.857 30.0258 440.129 32.3713 441.844 35.0289C449.154 46.3542 458.807 54.5638 465.619 59.4565C469.53 62.2658 473.704 64.8699 478.128 67.2648C474.09 76.0861 470.244 85.501 466.708 95.2767C466.049 97.0993 465.407 98.9188 464.781 100.734C443.658 86.9499 425.776 71.1327 414.045 55.8251C414.043 55.823 414.041 55.8209 414.04 55.8188C416.977 50.7957 420.344 46.0421 424.115 41.5858C425.678 39.7484 427.296 37.9648 428.994 36.2355C429.236 35.9926 429.452 35.7763 429.694 35.5331C432.318 32.903 435.07 30.438 437.936 28.1338ZM528.253 12.8587C531.319 13.9736 532.876 18.3868 533.642 21.8926C534.853 27.4329 535.072 35.2147 534.275 44.3968C533.403 54.4474 531.396 65.8627 528.408 78.0176C524.8 77.3952 521.276 76.6911 517.845 75.9C505.987 73.1663 495.178 69.4268 485.525 64.7293C491.285 52.6859 497.375 41.9455 503.465 33.1936C508.725 25.6345 513.868 19.8026 518.34 16.3285C520.673 14.5157 523.813 12.5754 526.562 12.5754C527.147 12.5752 527.715 12.663 528.253 12.8587ZM516.199 81.3062C519.712 82.1238 523.32 82.8497 527.01 83.4942C524.418 93.2751 521.224 103.462 517.503 113.747C516.069 117.712 514.584 121.614 513.057 125.44C499.08 120.294 484.245 112.936 469.66 103.846C470.414 101.637 471.191 99.4206 471.995 97.1991C475.452 87.643 479.204 78.4461 483.138 69.833C493.051 74.6502 504.106 78.4914 516.199 81.3062ZM571.11 35.5333C580.301 44.7476 587.524 55.4752 592.564 67.4186C594.361 71.6857 595.852 76.0461 597.035 80.4845C573.984 82.1748 552.862 81.6441 533.98 78.9041C536.976 66.6301 538.993 55.0839 539.878 44.8854C540.855 33.6234 540.736 20.2837 536.182 12.7768C537.238 13.1836 538.289 13.6074 539.334 14.0513C551.247 19.1043 561.947 26.3188 571.11 35.5333ZM500.416 6.16114C507.343 6.16114 514.157 6.86025 520.817 8.24674C512.962 11.6752 504.94 21.2175 498.852 29.9673C492.621 38.9225 486.399 49.8825 480.523 62.151C476.558 59.9911 472.808 57.658 469.285 55.1522C452.571 43.2634 445.206 30.4455 442.528 24.6555C446.628 21.7325 450.938 19.1217 455.445 16.8425C455.447 16.8428 455.448 16.8433 455.449 16.8438C457.285 15.915 459.157 15.0459 461.056 14.2304C461.195 14.1711 461.332 14.1103 461.471 14.0516C461.502 14.0373 461.535 14.0248 461.567 14.0108C461.972 13.839 462.379 13.6721 462.787 13.5069C462.896 13.4635 463.007 13.4193 463.115 13.3761C474.946 8.59291 487.506 6.16114 500.416 6.16114ZM402.718 18.7085C405.969 13.5341 413.234 10.8635 423.435 10.8635C428.315 10.8635 433.869 11.4743 439.973 12.7165C442.291 13.1872 444.658 13.7405 447.066 14.3772C447.068 14.3777 447.07 14.3783 447.072 14.379C439.15 18.972 431.876 24.591 425.328 31.1826C423.954 32.5337 422.633 33.9387 421.339 35.3979C419.722 37.1815 418.186 39.046 416.704 40.9377C414.332 43.9641 412.149 47.1253 410.128 50.3682C410.126 50.3708 410.124 50.3737 410.123 50.3763C401.108 36.957 398.398 25.5786 402.718 18.7085ZM408.241 67.4186C409.13 65.365 410.047 63.3384 411.044 61.3658C411.045 61.3643 411.046 61.3625 411.046 61.3607C423.399 76.8403 441.606 92.6648 462.879 106.389C459.863 115.593 457.289 124.639 455.212 133.308C439.735 129.554 425.393 125.306 412.823 120.759C410.181 119.813 407.621 118.84 405.168 117.868C403.713 117.3 402.285 116.706 400.883 116.111C400.667 113.95 400.506 111.761 400.452 109.572C400.425 108.518 400.398 107.492 400.398 106.438C400.398 105.222 400.425 103.978 400.452 102.763C400.802 93.6566 402.338 84.7663 405.034 76.1737C405.492 74.7147 405.977 73.2824 406.516 71.8505C407.055 70.3639 407.621 68.8779 408.241 67.4186ZM390.21 111.302C371.101 101.952 362.369 92.9271 366.277 86.5229C369.43 81.3348 380.912 77.8219 398.484 76.5248C396.328 83.8206 395.007 91.3594 394.495 99.0066C394.333 101.276 394.253 103.546 394.226 105.843V106.438C394.226 108.734 394.306 111.031 394.441 113.301C392.986 112.652 391.585 111.977 390.21 111.302ZM404.71 122.785C407.297 123.758 409.939 124.731 412.661 125.677C425.174 130.024 439.202 134.064 454.206 137.649C453.661 140.086 453.158 142.489 452.697 144.853C451.471 144.555 450.244 144.263 449.016 143.983C428.273 139.249 412.706 138.286 405.49 138.123C403.703 132.726 402.389 127.205 401.557 121.569C402.608 121.975 403.659 122.38 404.71 122.785ZM408.241 145.456C408.016 144.92 407.797 144.382 407.581 143.844C415.277 144.154 429.544 145.322 447.768 149.481C449.072 149.779 450.375 150.091 451.678 150.409C450.74 155.894 450.048 161.135 449.62 166.061C448.811 175.392 448.753 186.15 451.348 193.835C443.446 189.375 436.198 183.862 429.695 177.342C420.504 168.128 413.281 157.4 408.241 145.456ZM539.334 198.824C526.99 204.066 513.919 206.714 500.416 206.714C490.014 206.714 479.852 205.141 470.091 202.023C477.489 198.135 484.922 189.207 490.646 180.98C493.599 176.737 496.549 172.041 499.462 166.972C516.255 174.597 532.4 183.966 547.568 194.878C544.894 196.311 542.149 197.63 539.334 198.824ZM571.11 177.342C565.581 182.902 559.488 187.728 552.911 191.797C536.978 180.122 519.958 170.126 502.222 162.037C504.661 157.557 507.065 152.825 509.411 147.885C525.647 150.042 541.255 151.336 555.505 151.671C559.225 151.779 562.836 151.779 566.34 151.752C575.422 151.644 583.508 151.103 590.435 150.131C585.583 160.21 579.088 169.343 571.11 177.342Z" fill="#ADCBF9"/>
<path d="M278.134 183.889L261.151 386.348C261.151 386.348 259.372 398.621 268.477 398.642C283.448 398.678 342.992 398.642 342.992 398.642C342.992 398.642 331.724 396.088 331.861 390.34C332.022 383.564 351.711 181.973 351.711 181.973L278.134 183.889Z" fill="#D86713"/>
<path d="M347.822 394.969C344.878 394.978 288.006 395.157 273.427 394.969C267.073 394.89 265.959 389.305 265.906 385.691C265.88 383.958 266.099 382.677 266.099 382.677L266.541 377.415L267.667 364.003L268.661 352.154L269.938 336.927L271.014 324.075L283.082 180.214L356.659 178.3C356.659 178.3 348.367 262.664 342.501 324.075C341.846 330.917 341.223 337.478 340.647 343.602C340.46 345.557 340.282 347.469 340.106 349.33C339.562 355.141 339.065 360.477 338.632 365.188C338.404 367.67 338.194 369.978 338.004 372.091C337.255 380.373 336.817 385.661 336.81 386.667C336.808 387.253 336.857 387.798 336.954 388.306C338.161 394.758 346.717 394.969 347.822 394.969Z" fill="#CDB8A1"/>
<path d="M99.4422 73.7185L140.811 240.317L146.475 263.133L165.742 340.73H523.701L452.684 73.7185H99.4422Z" fill="#CDB8A1"/>
<path d="M99.4469 73.7183L93.7136 75.6344L158.126 346.526L165.748 340.731L99.4469 73.7183Z" fill="#CDB8A1"/>
<path d="M158.126 346.526H513.881L523.705 340.731H165.748L158.126 346.526Z" fill="#D86713"/>
<path d="M360.08 395.05H283.054V398.72H360.08V395.05Z" fill="#CDB8A1"/>
<path d="M340.502 346.525L340.105 349.33L267.665 364.003L268.659 352.154L269.133 346.525H340.502Z" fill="#D86713"/>
<path opacity="0.4" d="M347.823 394.969C344.879 394.978 288.007 395.157 273.428 394.969C267.074 394.89 265.96 389.305 265.907 385.691L338.005 372.091C337.256 380.373 336.818 385.661 336.811 386.667C336.809 387.253 336.858 387.798 336.955 388.306C338.162 394.758 346.718 394.969 347.823 394.969Z" fill="#D86713"/>
<path opacity="0.4" d="M322.993 286.677L165.748 340.731L146.48 263.134L322.993 286.677Z" fill="#D86713"/>
<path d="M99.4422 73.7183H452.684L509.998 288.312H152.727L99.4422 73.7183Z" fill="#699DEE"/>
<path d="M354.22 315.439C353.199 310.176 348.117 305.91 342.868 305.91C337.619 305.91 334.19 310.176 335.211 315.439C336.231 320.702 341.314 324.968 346.563 324.968C351.812 324.969 355.24 320.702 354.22 315.439Z" fill="#D86713"/>
<path d="M493.341 279.012H162.599L125.143 129.415L122.272 117.943L119.822 108.158L114.077 85.213H440.052L446.36 108.158L449.051 117.943L452.205 129.415L493.341 279.012Z" fill="#E9F3FE"/>
<path d="M446.36 108.158H119.822L114.077 85.213H440.052L446.36 108.158Z" fill="#AFCDFB"/>
<path d="M129.71 92.7145C128.13 92.7145 127.169 93.9986 127.563 95.5829C127.957 97.1669 129.557 98.4512 131.137 98.4512C132.717 98.4512 133.678 97.1671 133.284 95.5829C132.89 93.9986 131.29 92.7145 129.71 92.7145Z" fill="#E9F3FE"/>
<path d="M139.215 92.7142C137.635 92.7142 136.673 93.9983 137.067 95.5826C137.461 97.1666 139.061 98.451 140.642 98.451C142.221 98.451 143.183 97.1669 142.789 95.5826C142.395 93.9983 140.795 92.7142 139.215 92.7142Z" fill="#E9F3FE"/>
<path d="M153.028 95.5824C152.634 93.9983 151.033 92.714 149.454 92.714C147.874 92.714 146.912 93.9981 147.306 95.5824C147.7 97.1664 149.3 98.4507 150.88 98.4507C152.46 98.4507 153.422 97.1666 153.028 95.5824Z" fill="#E9F3FE"/>
<path d="M621.6 260.458L623.17 263.009C623.986 263.948 624.204 264.473 624.85 264.791C626.41 265.561 629.29 267.536 629.507 271.683C629.507 271.683 629.458 274.03 627.888 273.27C626.319 272.509 627.004 272.58 624.773 271.555C622.542 270.53 621.714 267.27 621.519 266.158L619.699 263.762L621.6 260.458Z" fill="#FFB27D"/>
<path d="M575.443 396.468C575.357 397.387 574.849 397.979 574.042 398.333C574.039 398.335 574.035 398.337 574.03 398.337C572.539 398.992 570.039 398.843 567.337 398.478C566.991 398.433 566.68 398.395 566.401 398.369C566.328 398.363 566.255 398.356 566.183 398.352C566.127 398.347 566.07 398.344 566.016 398.339C563.325 398.162 563.536 398.993 558.395 398.967C552.534 398.936 550.552 396.957 550.283 396.114C550.057 395.398 552.623 394.843 555.493 394.203C555.631 394.173 555.77 394.14 555.911 394.11C556.293 394.025 556.677 393.936 557.059 393.849C560.479 393.044 563.866 392.029 564.986 388.734C566.174 385.24 565.892 374.873 565.892 374.873H576.271C576.271 374.873 573.547 386.327 573.832 389.627C573.987 391.39 574.828 391.891 575.152 393.418C575.176 393.525 575.197 393.632 575.216 393.739C575.373 394.632 575.528 395.547 575.443 396.468Z" fill="#FFB27D"/>
<path d="M587.52 284.409C586.644 289.34 585.394 294.434 584.309 299.733C582.565 308.253 581.249 317.304 582.596 327.05C582.768 328.305 582.862 329.689 582.883 331.177C583.144 348.403 575.467 379.62 575.467 379.62C575.467 379.62 573.382 380.522 569.888 380.348C568.089 380.259 565.328 379.096 565.328 379.096C565.328 379.096 564.601 359.741 564.558 333.712C564.526 314.845 560.831 290.002 560.084 275.404C559.633 266.57 560.613 254.801 560.613 254.801C560.613 254.801 575.916 242.464 581.413 248.776C586.843 255.013 590.797 265.966 587.52 284.409Z" fill="#80BDCC"/>
<path d="M582.603 327.05C582.776 328.305 582.869 329.689 582.89 331.177C571.429 314.53 568.895 278.229 568.895 278.229L581.483 284.354C581.483 284.354 582.863 291.161 584.316 299.733C582.572 308.254 581.256 317.304 582.603 327.05Z" fill="#5F9AA8"/>
<path d="M608.557 396.468C608.471 397.387 607.963 397.979 607.156 398.333C607.154 398.335 607.149 398.337 607.144 398.337C605.653 398.992 603.153 398.843 600.451 398.478C600.105 398.433 599.794 398.395 599.516 398.369C599.442 398.363 599.369 398.356 599.298 398.352C599.241 398.347 599.184 398.344 599.13 398.339C596.439 398.162 596.65 398.993 591.509 398.967C585.649 398.936 583.667 396.957 583.398 396.114C583.172 395.398 585.738 394.843 588.607 394.203C588.745 394.173 588.884 394.14 589.025 394.11C589.407 394.025 589.791 393.936 590.173 393.849C593.593 393.044 596.98 392.029 598.1 388.734C599.288 385.24 597.591 375.032 597.591 375.032L607.206 374.227C607.206 374.227 606.609 385.858 606.895 389.159C607.05 390.922 607.942 391.891 608.266 393.418C608.29 393.525 608.311 393.632 608.33 393.739C608.487 394.632 608.643 395.547 608.557 396.468Z" fill="#FFB27D"/>
<path d="M607.198 380.501C607.198 380.501 604.726 381.674 602.946 382.031C601.167 382.388 597.47 381.691 597.47 381.691C596.803 374.195 595.254 362.475 592.243 349.248C588.814 334.19 583.713 316.396 576.6 299.546C575.081 295.947 568.816 278.913 567.753 274.615C564.539 261.626 567.766 263.025 567.766 263.025L595.864 259.719C595.864 259.719 599.326 261.503 600.92 279.844C601.397 285.337 601.456 309.053 602.175 313.549C602.856 317.807 603.653 321.347 604.588 323.647C609.808 336.493 607.198 380.501 607.198 380.501Z" fill="#80BDCC"/>
<path d="M608.557 396.468C608.472 397.387 607.963 397.979 607.157 398.333C607.154 398.335 607.149 398.337 607.145 398.337C605.569 398.901 603.107 398.78 600.458 398.462C600.111 398.421 599.799 398.391 599.516 398.369C599.442 398.363 599.369 398.356 599.298 398.352C599.241 398.347 599.184 398.344 599.13 398.339C596.439 398.162 596.65 398.993 591.509 398.967C585.649 398.936 583.667 396.957 583.398 396.114C583.172 395.398 585.738 394.843 588.607 394.203C589.361 394.578 592.973 396.215 597.46 395.778C601.407 395.398 605.436 393.813 608.266 393.418C608.29 393.525 608.311 393.632 608.33 393.739C608.488 394.632 608.643 395.547 608.557 396.468Z" fill="#B84C42"/>
<path d="M575.443 396.468C575.357 397.387 574.849 397.979 574.042 398.333C574.04 398.335 574.035 398.337 574.03 398.337C572.455 398.901 569.993 398.78 567.344 398.462C566.997 398.421 566.685 398.391 566.401 398.369C566.328 398.363 566.255 398.356 566.183 398.352C566.127 398.347 566.07 398.344 566.016 398.339C563.325 398.162 563.536 398.993 558.395 398.967C552.534 398.936 550.552 396.957 550.283 396.114C550.057 395.398 552.623 394.843 555.493 394.203C556.247 394.578 559.859 396.215 564.346 395.778C568.293 395.398 572.322 393.813 575.152 393.418C575.176 393.525 575.197 393.632 575.216 393.739C575.373 394.632 575.529 395.547 575.443 396.468Z" fill="#B84C42"/>
<path d="M564.205 175.367C563.256 167.597 565.677 155.162 581.146 157.149C596.616 159.136 601.492 174.378 598.372 181.156C595.251 187.933 602.863 189.568 605.252 196.856C607.305 203.117 608.021 210.891 611.342 214.38C622.051 225.629 601.06 242.926 588.407 239.279C565.357 232.635 562.388 231.644 563.206 213.486C563.626 204.183 570.845 200.579 566.261 197.887C555.189 191.385 566.353 192.951 564.205 175.367Z" fill="#B74B42"/>
<path d="M586.947 195.707L582.684 206.749L573.487 207.199L568.898 200.328C571.794 198.12 573.018 194.808 573.466 191.843C573.833 189.471 573.731 187.324 573.63 186.159C573.568 185.566 573.507 185.218 573.507 185.218L584.969 181.722L585.009 181.701C585.152 184.748 585.315 187.14 585.499 189C586.151 195.564 586.947 195.707 586.947 195.707Z" fill="#FFB27D"/>
<path d="M568.857 195.319C569.449 195.319 579.495 193.269 596.461 197.621C596.461 197.621 587.169 240.302 590.326 248.346C593.482 256.39 594.682 263.53 594.682 263.53L560.439 263.956C560.439 263.956 560.918 236.345 559.339 226.572C557.761 216.8 568.857 195.319 568.857 195.319Z" fill="#FFB27D"/>
<path d="M612.556 239.983C610.841 228.119 604.484 203.755 600.213 199.77C596.436 196.247 588.291 195.924 588.291 195.924V195.924L588.29 195.924C586.599 198.581 580.807 205.182 573.62 203.993C569.741 203.351 568.955 196.36 568.867 195.425L568.893 195.32C568.893 195.32 568.88 195.322 568.858 195.325C568.858 195.324 568.858 195.319 568.858 195.319C568.83 195.325 568.803 195.331 568.775 195.336C567.643 195.504 558.632 196.974 555.959 201.588C552.011 208.4 547.712 228.841 543.488 228.539C541.549 228.4 522.036 221.047 522.036 221.047C522.036 221.047 518.786 224.1 519.408 227.846C519.408 227.846 529.042 234.314 537.189 238.441C538.319 239.014 539.419 239.54 540.461 239.998C543.398 241.29 545.872 242.04 547.224 241.719C547.612 241.627 548.023 241.453 548.451 241.203C550.217 240.179 552.28 237.931 554.259 235.37C555.573 233.665 556.849 231.823 557.977 230.109C558 230.072 558.023 230.037 558.047 230C558.53 236.499 559.015 243.571 558.513 249.112C558.131 253.327 557.853 262.458 558.574 264.818C560.078 269.735 571.133 271.035 581.45 270.522C586.314 270.279 589.75 270.001 592.25 269.423C595.878 268.587 597.537 267.125 598.73 264.237C599.869 261.487 594.604 248.577 594.103 242.927C593.647 237.805 594.43 233.637 595.718 229.54C599.362 237.973 603.066 244.006 603.552 245.313C604.573 248.065 620.124 265.466 620.124 265.466C620.124 265.466 621.381 265.207 622.378 264.554C623.406 263.88 623.92 262.988 623.92 262.988C621.176 256.454 612.556 239.983 612.556 239.983Z" fill="#CDB8A1"/>
<path d="M598.733 264.236C597.539 267.124 595.881 268.587 592.253 269.422C587.403 268.487 584.205 259.541 582.558 255.137C580.66 250.063 590.547 223.975 593.276 224.213C595.305 224.389 595.655 227.841 595.722 229.539C594.409 233.676 593.646 237.753 594.106 242.927C594.607 248.577 599.872 261.486 598.733 264.236Z" fill="#E58638"/>
<path d="M522.173 223.098C522.173 223.098 520.508 219.008 518.677 218.841C516.845 218.674 511.018 217.756 510.601 218.591C510.185 219.426 510.601 222.43 511.85 223.516C513.099 224.601 520.842 226.353 520.842 226.353L522.173 223.098Z" fill="#FFB27D"/>
<path d="M557.978 230.108C556.851 231.823 555.575 233.665 554.26 235.369C552.376 237.696 550.294 239.946 548.452 241.203C548.025 241.452 547.614 241.627 547.226 241.719C545.874 242.039 543.4 241.29 540.463 239.998C542.211 240.127 543.927 240.064 545.615 239.921C548.571 239.669 549.43 236.46 554.103 231.648C556.897 228.772 557.746 229.215 557.978 230.108Z" fill="#E58638"/>
<path d="M584.969 181.722C583.236 184.564 579.055 190.412 573.467 191.843C573.834 189.471 573.732 187.324 573.63 186.159C573.569 185.566 573.507 185.218 573.507 185.218L584.969 181.722Z" fill="#E2915A"/>
<path d="M570.492 185.999C570.492 185.999 584.271 188.774 585.863 180.144C587.454 171.514 590.304 166.06 581.574 163.924C572.843 161.788 570.522 164.763 569.292 167.514C568.062 170.265 566.949 185.055 570.492 185.999Z" fill="#FFB27D"/>
<path d="M577.232 161.77C577.232 161.77 576.99 164.697 581.522 169.664C586.054 174.631 585.171 184.674 585.171 184.674C585.171 184.674 592.611 169.092 588.536 164.496C584.462 159.901 577.232 161.77 577.232 161.77Z" fill="#B74B42"/>
<path d="M582.769 157.961C582.769 157.961 575.919 155.663 569.121 162.379C566.193 165.272 566.635 170.96 568.204 174.26C568.204 174.26 570.613 167.188 574.997 165.646C579.381 164.103 582.769 157.961 582.769 157.961Z" fill="#B74B42"/>
<path d="M574.784 181.753C574.784 181.753 574.415 182.778 571.821 182.313C571.821 182.313 569.643 181.923 569.844 180.773C569.844 180.773 572.066 180.196 574.784 181.753Z" fill="white"/>
<path d="M361.833 185.056C365.569 206.304 353.198 223.527 334.201 223.527C332.965 223.527 331.698 222.67 330.469 222.526C347.385 220.483 358.005 204.919 354.511 185.056C351.018 165.193 334.684 148.847 317.049 146.805C318.227 146.66 319.433 146.587 320.67 146.587C339.666 146.588 358.096 163.811 361.833 185.056Z" fill="#699DEE"/>
<path d="M377.024 196.16C382.432 196.16 385.936 191.147 384.849 184.964C383.762 178.782 378.494 173.769 373.086 173.769C372.815 173.769 372.553 173.793 372.291 173.817C371.476 171.532 370.541 169.303 369.507 167.135C372.234 165.242 373.662 161.539 372.913 157.282C371.858 151.281 366.869 146.385 361.635 146.1L355.266 146.179C354.945 146.179 354.632 146.198 354.327 146.232C353.683 145.624 353.033 145.03 352.37 144.452C353.247 142.59 353.565 140.298 353.127 137.807C352.04 131.625 346.772 126.612 341.364 126.612C341.322 126.612 341.28 126.612 341.238 126.615L341.238 126.612L335.93 126.715C335.778 126.707 335.627 126.702 335.477 126.702C335.208 126.702 334.947 126.715 334.688 126.739L334.683 126.741C333.188 126.881 331.863 127.42 330.768 128.262C329.673 129.108 328.811 130.259 328.243 131.625C328.114 131.596 327.989 131.561 327.86 131.532C327.829 131.157 327.778 130.777 327.71 130.391C326.622 124.209 321.358 119.196 315.95 119.196L310.14 119.291C310.113 119.291 310.089 119.289 310.063 119.289C309.971 119.289 309.879 119.294 309.79 119.296L309.68 119.299H309.677C309.254 119.317 308.844 119.368 308.447 119.449C308.447 119.449 308.444 119.449 308.442 119.452C308.187 119.542 299.646 122.65 302.565 133.439L301.967 133.701C301.967 133.701 300.272 130.263 297.235 128.399C293.477 126.091 291.027 126.635 290.699 126.678L285.633 126.701L285.634 126.709C280.353 126.844 276.959 131.798 278.032 137.896C278.539 140.78 279.961 143.4 281.875 145.384C281.698 145.622 281.524 145.862 281.351 146.105L279.589 146.123C279.329 146.099 279.066 146.086 278.806 146.086C278.476 146.086 278.153 146.105 277.838 146.142L273.358 146.189C273.332 146.189 273.305 146.187 273.281 146.184C273.159 146.181 273.037 146.178 272.919 146.178C272.706 146.178 272.499 146.186 272.293 146.202H272.28C272.106 146.215 271.932 146.231 271.763 146.255C267.022 146.915 264.086 151.64 265.094 157.373C265.937 162.169 269.303 166.252 273.292 167.845C273.068 169.794 272.949 171.796 272.937 173.837L270.977 173.869C270.892 173.866 270.807 173.861 270.723 173.861C270.517 173.861 270.319 173.872 270.121 173.885L269.748 173.89C269.748 173.89 269.753 173.901 269.755 173.917C264.905 174.476 261.877 179.249 262.898 185.056C263.985 191.239 269.25 196.251 274.661 196.251L276.86 196.217C277.376 197.659 277.938 199.082 278.545 200.482C274.758 201.869 272.57 206.139 273.46 211.202C274.506 217.147 279.414 222.006 284.599 222.371L284.6 222.373H284.613C284.815 222.387 285.018 222.397 285.221 222.397C285.489 222.397 285.753 222.381 286.012 222.358L290.984 222.305L290.98 222.3C291.023 222.302 291.065 222.305 291.11 222.305C291.795 222.305 292.447 222.223 293.066 222.07C293.87 222.886 294.69 223.684 295.529 224.455C294.453 226.396 294.037 228.894 294.516 231.62C295.604 237.805 300.871 242.815 306.279 242.815L312.04 242.725L312.036 242.719C312.079 242.722 312.121 242.725 312.166 242.725C315.464 242.725 318.046 240.855 319.316 237.998C319.969 238.175 320.625 238.341 321.284 238.492C321.318 238.864 321.366 239.244 321.434 239.63C322.521 245.812 327.789 250.825 333.197 250.825L339.078 250.732C339.081 250.732 339.081 250.732 339.084 250.732H339.102L339.478 250.727C339.478 250.727 339.477 250.724 339.477 250.722C344.659 250.484 347.967 245.569 346.906 239.537C346.838 239.154 346.756 238.774 346.656 238.399C346.844 238.351 347.03 238.298 347.219 238.248C349.486 241.013 352.664 242.814 355.898 242.814L361.565 242.714C361.639 242.717 361.712 242.725 361.786 242.725C367.194 242.725 370.698 237.712 369.611 231.53C369.201 229.197 368.193 227.032 366.81 225.239C367.543 224.299 368.232 223.319 368.886 222.305H375.533L375.532 222.302C375.574 222.302 375.617 222.305 375.659 222.305C381.067 222.305 384.571 217.292 383.484 211.11C382.69 206.593 379.663 202.711 375.98 200.942C376.126 199.36 376.204 197.752 376.213 196.114C376.483 196.138 376.752 196.16 377.024 196.16ZM333.965 222.715C314.915 222.715 296.476 205.67 292.778 184.642C289.08 163.615 301.523 146.567 320.573 146.567C339.623 146.567 358.063 163.615 361.761 184.642C365.46 205.67 353.016 222.715 333.965 222.715Z" fill="#699DEE"/>
<path d="M376.894 196.16C382.302 196.16 385.805 191.148 384.717 184.965C383.63 178.782 378.364 173.77 372.956 173.77C372.685 173.77 372.422 173.792 372.161 173.816C371.345 171.533 370.412 169.303 369.375 167.135C372.104 165.242 373.533 161.54 372.783 157.281C371.696 151.098 366.431 146.086 361.022 146.086C359.024 146.086 357.289 146.774 355.947 147.949C354.748 146.731 353.511 145.563 352.239 144.451C353.116 142.591 353.433 140.298 352.995 137.806C351.908 131.623 346.642 126.611 341.234 126.611C337.259 126.611 334.321 129.324 333.472 133.214C331.581 132.535 329.664 131.971 327.73 131.531C327.697 131.157 327.648 130.777 327.58 130.392C326.493 124.209 321.227 119.197 315.819 119.197C310.411 119.197 306.909 124.209 307.996 130.392C308.064 130.776 308.148 131.156 308.247 131.531C306.057 132.073 303.959 132.8 301.964 133.701C299.801 129.551 295.753 126.611 291.613 126.611C286.206 126.611 282.703 131.623 283.79 137.806C284.297 140.689 285.719 143.308 287.634 145.293C286.829 146.366 286.073 147.489 285.368 148.656C283.392 147.051 281.047 146.087 278.675 146.087C273.267 146.087 269.765 151.099 270.852 157.281C271.696 162.08 275.059 166.161 279.05 167.754C278.815 169.803 278.692 171.904 278.688 174.052C277.961 173.873 277.222 173.77 276.479 173.77C271.071 173.77 267.569 178.783 268.656 184.966C269.743 191.148 275.009 196.161 280.417 196.161C281.16 196.161 281.863 196.058 282.527 195.879C283.067 197.408 283.662 198.912 284.303 200.392C280.515 201.778 278.328 206.05 279.218 211.11C280.305 217.293 285.571 222.305 290.979 222.305C293.335 222.305 295.328 221.353 296.739 219.768C298.191 221.38 299.71 222.914 301.286 224.363C300.21 226.305 299.794 228.802 300.274 231.53C301.361 237.713 306.627 242.725 312.035 242.725C316.001 242.725 318.934 240.023 319.791 236.147C322.169 237.085 324.591 237.841 327.042 238.399C327.075 238.774 327.125 239.154 327.192 239.539C328.28 245.721 333.545 250.733 338.953 250.733C344.361 250.733 347.864 245.721 346.776 239.539C346.709 239.154 346.625 238.774 346.526 238.399C348.378 237.941 350.163 237.35 351.877 236.634C354.136 240.247 357.858 242.725 361.656 242.725C367.064 242.725 370.567 237.713 369.479 231.53C369.069 229.197 368.063 227.032 366.68 225.239C367.842 223.75 368.907 222.162 369.87 220.487C371.608 221.633 373.558 222.305 375.53 222.305C380.938 222.305 384.44 217.293 383.353 211.11C382.559 206.593 379.531 202.711 375.85 200.941C375.995 199.361 376.074 197.752 376.083 196.114C376.352 196.138 376.623 196.16 376.894 196.16ZM333.962 222.715C314.913 222.715 296.472 205.668 292.774 184.641C289.076 163.614 301.52 146.568 320.57 146.568C339.619 146.568 358.06 163.614 361.758 184.641C365.456 205.669 353.011 222.715 333.962 222.715Z" fill="#AFCDFB"/>
<path d="M425.872 186.583C428.729 202.827 419.271 215.994 404.748 215.994C403.803 215.994 402.834 215.339 401.895 215.229C414.827 213.667 422.946 201.769 420.275 186.583C417.604 171.398 405.117 158.902 391.635 157.34C392.536 157.229 393.458 157.174 394.404 157.174C408.926 157.174 423.016 170.341 425.872 186.583Z" fill="#D86713"/>
<path d="M437.484 195.072C441.618 195.072 444.297 191.239 443.466 186.513C442.635 181.786 438.608 177.954 434.473 177.954C434.266 177.954 434.066 177.972 433.866 177.99C433.242 176.244 432.528 174.54 431.737 172.882C433.822 171.435 434.913 168.604 434.341 165.349C433.534 160.762 429.72 157.019 425.718 156.801L420.85 156.861C420.604 156.861 420.365 156.875 420.132 156.901C419.639 156.437 419.143 155.983 418.636 155.541C419.306 154.117 419.549 152.365 419.214 150.461C418.383 145.734 414.356 141.902 410.222 141.902C410.19 141.902 410.157 141.902 410.125 141.904L410.125 141.902L406.067 141.981C405.951 141.975 405.836 141.971 405.721 141.971C405.515 141.971 405.316 141.981 405.118 141.999L405.114 142.001C403.971 142.108 402.958 142.52 402.12 143.164C401.283 143.81 400.625 144.69 400.19 145.734C400.091 145.712 399.996 145.686 399.898 145.664C399.873 145.377 399.835 145.086 399.783 144.791C398.951 140.065 394.927 136.233 390.792 136.233L386.35 136.305C386.33 136.305 386.312 136.303 386.291 136.303C386.221 136.303 386.151 136.307 386.083 136.309L385.999 136.311H385.997C385.673 136.326 385.359 136.364 385.056 136.426C385.056 136.426 385.054 136.426 385.053 136.429C384.857 136.497 378.327 138.874 380.559 147.121L380.102 147.322C380.102 147.322 378.806 144.694 376.485 143.268C373.611 141.504 371.738 141.92 371.488 141.953L367.615 141.971L367.616 141.977C363.579 142.08 360.984 145.868 361.804 150.529C362.192 152.734 363.279 154.737 364.742 156.253C364.607 156.435 364.474 156.619 364.341 156.805L362.995 156.819C362.796 156.801 362.595 156.791 362.396 156.791C362.144 156.791 361.897 156.805 361.656 156.833L358.231 156.869C358.211 156.869 358.19 156.867 358.172 156.865C358.078 156.863 357.985 156.861 357.895 156.861C357.732 156.861 357.574 156.867 357.417 156.879H357.407C357.273 156.889 357.141 156.902 357.011 156.92C353.387 157.424 351.142 161.036 351.913 165.42C352.558 169.086 355.13 172.208 358.18 173.425C358.009 174.915 357.918 176.446 357.908 178.006L356.41 178.03C356.346 178.028 356.281 178.024 356.216 178.024C356.059 178.024 355.907 178.033 355.756 178.043L355.471 178.047C355.471 178.047 355.474 178.055 355.476 178.067C351.768 178.495 349.453 182.144 350.233 186.583C351.065 191.31 355.09 195.142 359.226 195.142L360.907 195.116C361.302 196.218 361.731 197.307 362.196 198.376C359.301 199.437 357.628 202.701 358.308 206.572C359.107 211.116 362.86 214.831 366.824 215.11L366.824 215.112H366.835C366.99 215.122 367.144 215.13 367.299 215.13C367.504 215.13 367.705 215.118 367.904 215.1L371.705 215.06L371.702 215.056C371.735 215.058 371.767 215.06 371.801 215.06C372.325 215.06 372.823 214.997 373.297 214.88C373.912 215.504 374.538 216.114 375.18 216.703C374.358 218.187 374.039 220.098 374.405 222.181C375.237 226.909 379.264 230.74 383.398 230.74L387.802 230.671L387.799 230.667C387.832 230.669 387.864 230.671 387.899 230.671C390.42 230.671 392.394 229.241 393.365 227.057C393.864 227.193 394.366 227.32 394.869 227.434C394.896 227.719 394.932 228.01 394.984 228.305C395.815 233.031 399.842 236.863 403.977 236.863L408.473 236.793C408.475 236.793 408.475 236.793 408.477 236.793H408.491L408.779 236.789C408.779 236.789 408.778 236.787 408.778 236.785C412.739 236.603 415.268 232.846 414.457 228.234C414.406 227.942 414.343 227.651 414.266 227.364C414.411 227.328 414.553 227.287 414.697 227.249C416.43 229.363 418.859 230.74 421.332 230.74L425.665 230.663C425.722 230.665 425.777 230.671 425.833 230.671C429.968 230.671 432.647 226.839 431.815 222.113C431.502 220.33 430.731 218.674 429.675 217.303C430.235 216.584 430.761 215.835 431.262 215.06H436.343L436.342 215.058C436.374 215.058 436.407 215.06 436.439 215.06C440.574 215.06 443.253 211.228 442.421 206.501C441.814 203.049 439.5 200.081 436.684 198.728C436.796 197.519 436.855 196.289 436.863 195.037C437.07 195.056 437.276 195.072 437.484 195.072ZM404.566 215.373C390.002 215.373 375.905 202.342 373.078 186.267C370.251 170.191 379.763 157.158 394.328 157.158C408.892 157.158 422.989 170.191 425.816 186.267C428.643 202.342 419.13 215.373 404.566 215.373Z" fill="#D86713"/>
<path d="M437.385 195.072C441.52 195.072 444.197 191.24 443.366 186.513C442.535 181.787 438.509 177.955 434.375 177.955C434.167 177.955 433.966 177.971 433.766 177.99C433.142 176.245 432.43 174.54 431.637 172.882C433.722 171.435 434.815 168.605 434.242 165.349C433.411 160.622 429.386 156.791 425.251 156.791C423.723 156.791 422.397 157.316 421.37 158.215C420.454 157.283 419.509 156.39 418.536 155.54C419.206 154.118 419.449 152.365 419.114 150.46C418.282 145.733 414.257 141.901 410.122 141.901C407.083 141.901 404.838 143.975 404.188 146.95C402.742 146.43 401.277 146 399.798 145.663C399.773 145.377 399.735 145.086 399.684 144.792C398.852 140.065 394.827 136.234 390.692 136.234C386.558 136.234 383.88 140.065 384.712 144.792C384.763 145.086 384.828 145.377 384.903 145.663C383.229 146.077 381.625 146.633 380.1 147.322C378.446 144.149 375.352 141.901 372.187 141.901C368.053 141.901 365.375 145.733 366.206 150.46C366.594 152.664 367.681 154.667 369.145 156.184C368.529 157.004 367.952 157.863 367.413 158.755C365.902 157.528 364.11 156.791 362.296 156.791C358.162 156.791 355.484 160.622 356.315 165.349C356.96 169.017 359.532 172.138 362.583 173.355C362.403 174.921 362.309 176.528 362.306 178.17C361.75 178.034 361.185 177.955 360.617 177.955C356.483 177.955 353.805 181.787 354.636 186.513C355.468 191.24 359.493 195.072 363.628 195.072C364.196 195.072 364.733 194.993 365.241 194.856C365.654 196.025 366.108 197.176 366.598 198.307C363.703 199.366 362.03 202.632 362.711 206.501C363.542 211.228 367.568 215.059 371.702 215.059C373.503 215.059 375.027 214.331 376.106 213.12C377.216 214.352 378.377 215.525 379.582 216.632C378.759 218.117 378.442 220.027 378.808 222.112C379.64 226.839 383.665 230.671 387.8 230.671C390.832 230.671 393.074 228.605 393.729 225.642C395.547 226.359 397.399 226.937 399.273 227.364C399.298 227.65 399.336 227.941 399.387 228.235C400.219 232.961 404.244 236.793 408.379 236.793C412.513 236.793 415.191 232.961 414.36 228.235C414.308 227.941 414.244 227.65 414.168 227.364C415.584 227.013 416.949 226.561 418.259 226.014C419.986 228.777 422.831 230.671 425.735 230.671C429.869 230.671 432.547 226.839 431.716 222.112C431.402 220.329 430.633 218.674 429.576 217.302C430.464 216.164 431.278 214.95 432.015 213.669C433.343 214.546 434.834 215.06 436.341 215.06C440.476 215.06 443.153 211.228 442.322 206.501C441.714 203.048 439.4 200.08 436.586 198.727C436.696 197.519 436.757 196.288 436.764 195.037C436.971 195.056 437.178 195.072 437.385 195.072ZM404.564 215.373C390.001 215.373 375.903 202.341 373.076 186.266C370.248 170.19 379.762 157.158 394.326 157.158C408.889 157.158 422.987 170.19 425.814 186.266C428.641 202.342 419.127 215.373 404.564 215.373Z" fill="#CDB8A1"/>
<path d="M157.06 199.053L175.005 266.199H190.945L172.999 199.053H157.06Z" fill="#AFCDFB"/>
<path d="M178.405 192.198L198.183 266.199H214.122L194.344 192.198H178.405Z" fill="#AFCDFB"/>
<path d="M198.181 180.39L221.114 266.199H237.053L214.12 180.39H198.181Z" fill="#AFCDFB"/>
<path d="M235.94 171.694H220L242.933 257.503H258.873L235.94 171.694Z" fill="#AFCDFB"/>
<path d="M159.418 192.492L176.499 179.328L177.79 184.16C178.003 184.958 178.65 185.688 179.456 186.04C180.263 186.399 181.096 186.315 181.598 185.831L199.843 168.349L202.396 170.649C202.705 170.927 203.122 170.8 203.082 170.44L202.262 163.119C202.233 162.867 201.982 162.638 201.726 162.629L194.15 162.386C193.781 162.375 193.688 162.804 194 163.084L196.279 165.138L180.846 179.925L179.664 175.501C179.459 174.734 178.853 174.029 178.084 173.66C177.319 173.293 176.505 173.322 175.972 173.73L156.222 188.95C155.414 189.573 155.474 190.87 156.355 191.848C156.924 192.477 157.692 192.82 158.384 192.82C158.768 192.819 159.13 192.713 159.418 192.492Z" fill="#AFCDFB"/>
<path d="M154.467 247.835L155.14 250.449C154.762 249.69 154.551 248.804 154.467 247.835Z" fill="#CAE0FF"/>
<path d="M493.358 278.995H162.584L155.14 250.449C161.995 265.207 217.72 249.058 230.21 240.076C253.047 223.547 253.215 207.272 276.851 196.225C308.856 181.256 340.861 204.7 366.6 198.291C445.54 178.684 510.979 114.55 512.998 112.527C490.834 163.968 436.834 191.038 478.344 207.904C521.409 225.402 493.358 278.995 493.358 278.995Z" fill="#CAE0FF"/>
<path d="M161.522 133.812C160.566 133.228 158.625 132.428 155.701 131.411C154.325 130.936 153.352 130.546 152.785 130.243C152.061 129.854 151.587 129.292 151.363 128.556C151.092 127.67 151.191 126.983 151.658 126.496C152.126 126.01 152.802 125.766 153.688 125.766C154.293 125.766 155.124 125.956 156.179 126.335C157.235 126.714 157.957 126.903 158.346 126.903C158.886 126.903 159.287 126.747 159.548 126.435C159.809 126.123 159.858 125.698 159.694 125.16C159.497 124.515 158.999 123.945 158.2 123.45C156.758 122.546 154.945 122.094 152.763 122.094C150.645 122.094 149.034 122.657 147.93 123.782C146.722 124.993 146.431 126.626 147.058 128.68C147.731 130.887 149.178 132.552 151.401 133.677C153.369 134.39 155.337 135.104 157.304 135.818C159.422 136.597 160.691 137.678 161.113 139.062C161.404 140.013 161.301 140.83 160.807 141.511C160.312 142.192 159.59 142.533 158.639 142.533C157.753 142.533 156.86 142.403 155.96 142.143C155.909 142.122 155.307 141.916 154.151 141.526C153.302 141.223 152.759 141.071 152.521 141.071C151.959 141.071 151.544 141.233 151.276 141.558C151.008 141.883 150.96 142.328 151.132 142.891C151.482 144.039 152.692 144.927 154.764 145.555C156.292 146.032 157.779 146.27 159.227 146.27C161.626 146.27 163.405 145.621 164.565 144.323C165.807 142.939 166.068 141.069 165.349 138.711C164.709 136.613 163.433 134.98 161.522 133.812Z" fill="#AFCDFB"/>
<path d="M171.772 126.091H175.096C176.812 126.091 177.479 125.463 177.096 124.207C176.706 122.929 175.636 122.29 173.886 122.29H163.256C161.506 122.29 160.826 122.929 161.215 124.207C161.598 125.463 162.654 126.091 164.382 126.091H167.656L172.997 143.606C173.539 145.382 174.484 146.27 175.835 146.27C177.229 146.27 177.655 145.382 177.113 143.606L171.772 126.091Z" fill="#AFCDFB"/>
<path d="M200.524 143.215L187.99 124.434C186.911 122.809 185.647 121.997 184.2 121.997C182.795 121.997 182.037 122.874 181.924 124.629L180.698 143.248C180.674 143.595 180.728 143.985 180.86 144.418C181.032 144.981 181.358 145.431 181.84 145.766C182.321 146.102 182.844 146.27 183.407 146.27C184.317 146.27 184.803 145.697 184.865 144.551L185.019 140.648H194.569L197.031 144.442C197.811 145.661 198.695 146.27 199.684 146.27C200.242 146.27 200.669 146.102 200.964 145.766C201.259 145.431 201.324 144.992 201.159 144.45C201.054 144.104 200.842 143.692 200.524 143.215ZM185.155 137.009L185.537 127.003C185.551 126.851 185.57 126.743 185.591 126.678L192.244 137.009H185.155V137.009Z" fill="#AFCDFB"/>
<path d="M217.566 142.338L209.676 135.807C213.84 135.504 215.311 133.349 214.089 129.341C213.382 127.023 212.051 125.246 210.098 124.012C208.3 122.864 206.223 122.29 203.868 122.29H199.234C197.527 122.29 196.948 123.191 197.498 124.994L203.191 143.664C203.734 145.445 204.681 146.335 206.032 146.335C207.425 146.335 207.852 145.452 207.314 143.686L204.941 135.905L205.153 136.067L215.405 145.068C216.378 145.913 217.21 146.335 217.904 146.335C218.446 146.335 218.849 146.167 219.115 145.832C219.381 145.496 219.432 145.057 219.267 144.516C219.055 143.822 218.488 143.097 217.566 142.338ZM206.821 133.208C205.562 133.208 204.641 133.143 204.059 133.012L201.929 126.027H204.957C207.518 126.027 209.154 127.191 209.865 129.519C210.615 131.978 209.6 133.208 206.821 133.208Z" fill="#AFCDFB"/>
<path d="M224.019 126.091H227.343C229.059 126.091 229.726 125.463 229.343 124.207C228.953 122.929 227.883 122.29 226.133 122.29H215.502C213.752 122.29 213.072 122.929 213.462 124.207C213.845 125.463 214.9 126.091 216.629 126.091H219.903L225.243 143.606C225.785 145.382 226.731 146.27 228.082 146.27C229.475 146.27 229.901 145.382 229.36 143.606L224.019 126.091Z" fill="#AFCDFB"/>
<path d="M249.096 143.436C248.908 142.822 248.525 142.292 247.945 141.847C247.366 141.402 246.769 141.179 246.157 141.179C245.543 141.179 245.083 141.402 244.775 141.847C244.467 142.292 244.407 142.822 244.594 143.436C244.781 144.051 245.165 144.58 245.744 145.025C246.324 145.47 246.92 145.693 247.533 145.693C248.146 145.693 248.607 145.47 248.915 145.025C249.223 144.58 249.283 144.051 249.096 143.436Z" fill="#AFCDFB"/>
<path d="M246.572 136.093L242.956 124.237C242.432 122.52 241.505 121.662 240.173 121.662C238.862 121.662 238.469 122.52 238.993 124.237L242.608 136.093C243.151 137.873 244.088 138.763 245.42 138.763C246.73 138.763 247.114 137.873 246.572 136.093Z" fill="#AFCDFB"/>
<path d="M446.336 278.995H285.764C292.62 273.345 301.998 263.562 306.961 249.522C315.372 225.825 344.097 235.608 369.457 231.517C394.859 227.427 446.098 175.578 447.85 181.551C448.788 184.75 437.336 226.879 454.158 231.644C470.771 236.324 477.121 262.635 446.336 278.995Z" fill="#AFCDFB"/>
<defs>
<linearGradient id="paint0_linear_6_842" x1="0" y1="223.162" x2="742" y2="223.162" gradientUnits="userSpaceOnUse">
<stop stop-color="#DAE3FE"/>
<stop offset="1" stop-color="#8B5CF6"/>
</linearGradient>
</defs>
</svg>
